# xmcd
#
# Track frame offsets:
#	150
#	14546
#	31473
#	50039
#	68347
#	110806
#	136156
#	155257
#	169315
#	204687
#	227947
#	247418
#	260439
#	275170
#	288448
#	315151
#	331241
#
# Disc length: 4642 seconds
#
# Revision: 0
# Processed by: cddbd v1.5.1PL0 Copyright (c) Steve Scherf et al.
# Submitted via: EasyCDDAExtractor 8.2.0.1
#
DISCID=02122011
DTITLE=Bob Dylan - Come Baby, Rock Me
DYEAR=1986
DGENRE=Blues
TTITLE0=Rainy Day Women Nos 12 and 35
TTITLE1=Gotta Serve Somebody
TTITLE2=Seeing The Real You At Last
TTITLE3=Across The Borderline
TTITLE4=Like A Rolling Stone
TTITLE5=In The Garden
TTITLE6=Blowin' In The Wind
TTITLE7=Uranium Rock
TTITLE8=Knockin' On Heaven's Door
TTITLE9=I And I
TTITLE10=Emotionally Yours
TTITLE11=We Had It All
TTITLE12=To Ramona
TTITLE13=One Too Many Mornings
TTITLE14=A Hard Rain's A Gonna-Fall
TTITLE15=I Forget More Than You'll Ever Know
TTITLE16=Lonesome Town
EXTD=
EXTT0=
EXTT1=
EXTT2=
EXTT3=
EXTT4=
EXTT5=
EXTT6=
EXTT7=
EXTT8=
EXTT9=
EXTT10=
EXTT11=
EXTT12=
EXTT13=
EXTT14=
EXTT15=
EXTT16=
PLAYORDER=
